<?xml version="1.0" encoding="UTF-8" standalone="no"?>
<svg width="220px" height="39px" viewBox="0 0 220 39" version="1.1" xmlns="http://www.w3.org/2000/svg" xmlns:xlink="http://www.w3.org/1999/xlink">
    <!-- Generator: Sketch 50.2 (55047) - http://www.bohemiancoding.com/sketch -->
    <title>Logo</title>
    <desc>Created with Sketch.</desc>
    <defs></defs>
    <g id="Symbols" stroke="none" stroke-width="1" fill="none" fill-rule="evenodd">
        <g id="Logo" fill="#00B40A">
            <g id="Fill-1">
                <path d="M35.6445832,16.1156369 C31.0417523,16.1156369 27.2970567,19.8554725 27.2970567,24.4527493 C27.2970567,29.0497385 31.0417523,32.7898618 35.6445832,32.7898618 C40.2468383,32.7898618 43.990382,29.0497385 43.990382,24.4527493 C43.990382,19.8554725 40.2468383,16.1156369 35.6445832,16.1156369 L35.6445832,16.1156369 Z M35.6445832,38.5 C27.8902644,38.5 21.5803775,32.1981957 21.5803775,24.4527493 C21.5803775,16.707303 27.8902644,10.4054987 35.6445832,10.4054987 C43.3983261,10.4054987 49.7076371,16.707303 49.7076371,24.4527493 C49.7076371,32.1981957 43.3983261,38.5 35.6445832,38.5 L35.6445832,38.5 Z M66.0816093,16.1156369 C61.4799302,16.1156369 57.7346587,19.8554725 57.7346587,24.4527493 C57.7346587,29.0497385 61.4799302,32.7898618 66.0816093,32.7898618 C70.6847282,32.7898618 74.4291358,29.0497385 74.4291358,24.4527493 C74.4291358,19.8554725 70.6847282,16.1156369 66.0816093,16.1156369 L66.0816093,16.1156369 Z M66.0816093,38.5 C58.3272904,38.5 52.0185554,32.1981957 52.0185554,24.4527493 C52.0185554,16.707303 58.3272904,10.4054987 66.0816093,10.4054987 C73.836504,10.4054987 80.1463909,16.707303 80.1463909,24.4527493 C80.1463909,32.1981957 73.836504,38.5 66.0816093,38.5 L66.0816093,38.5 Z M74.4153134,8.44957789 L74.4153134,2.86484871 C74.4153134,1.28716847 75.6947415,0.0100672394 77.2725012,0.0100672394 C78.8499729,0.0100672394 80.129401,1.28716847 80.129401,2.86484871 L80.129401,16.0411393 C78.9585357,14.0978745 77.3966141,12.4166455 75.5542146,11.1076167 C74.6690105,10.3534367 74.4579323,9.4145947 74.4153134,8.44957789 L74.4153134,8.44957789 Z M133.965879,10.4109638 C132.835617,10.4109638 131.994183,10.6364699 131.614933,10.7480725 C131.198824,10.8688793 130.673,11.4812551 131.201704,12.142529 C132.144213,13.3261487 132.848575,14.7111132 133.230992,16.2232126 C135.304052,15.6928129 136.708456,17.3501681 136.708456,18.8591035 L136.708456,35.6406164 C136.708456,37.2159955 137.98846,38.4948226 139.567948,38.4948226 C141.144844,38.4948226 142.423984,37.2159955 142.423984,35.6406164 L142.423984,18.8591035 C142.423984,14.2005603 138.629182,10.4109638 133.965879,10.4109638 L133.965879,10.4109638 Z M131.222437,18.8591035 L131.222437,35.6446433 C131.222437,37.2208853 129.941281,38.4994247 128.364098,38.4994247 C126.78605,38.4994247 125.50691,37.2208853 125.50691,35.6446433 L125.50691,18.8591035 C125.50691,17.3501681 124.275284,16.1190885 122.762316,16.1190885 C121.249349,16.1190885 120.018299,17.3501681 120.018299,18.8591035 L120.018299,35.6406164 C120.018299,37.2159955 118.739447,38.4948226 117.161111,38.4948226 C115.584215,38.4948226 114.303347,37.2159955 114.303347,35.6406164 L114.303347,18.8591035 C114.303347,14.2005603 118.098725,10.4109638 122.762316,10.4109638 C127.42706,10.4109638 131.222437,14.2005603 131.222437,18.8591035 L131.222437,18.8591035 Z M20.7936574,38.0115951 C20.3038291,38.3420882 19.747481,38.5 19.1986199,38.5 C18.2805878,38.5 17.3789697,38.0593425 16.826653,37.2413074 C16.826653,37.2413074 10.9746303,28.5673739 10.7410908,28.2250878 C10.4139626,27.7438737 10.6765866,27.2802055 10.8254645,27.1237318 L14.3682966,23.3847591 L21.5645395,34.0505678 C22.4477278,35.3578708 22.1013061,37.1314307 20.7936574,38.0115951 L20.7936574,38.0115951 Z M18.8890576,15.2291446 C19.9752612,14.0852185 19.928035,12.2782929 18.7804948,11.1936197 C17.6637669,10.135409 15.915532,10.1592828 14.8238571,11.2235338 C13.3350786,12.7287299 5.71523936,21.1015092 5.71523936,21.1015092 L5.71523936,2.86484871 C5.71523936,1.28716847 4.43465946,0.0100672394 2.85776366,0.0100672394 C1.27885212,0.0100672394 0,1.28716847 0,2.86484871 L0,35.6446433 C0,37.2208853 1.27885212,38.4994247 2.85776366,38.4994247 C4.43465946,38.4994247 5.71523936,37.2208853 5.71523936,35.6446433 L5.71523936,28.9830071 C5.71523936,28.9830071 11.0641874,23.470762 18.4404083,15.7011543 L18.8890576,15.2291446 Z M217.14166,10.4109638 C215.563613,10.4109638 214.284761,11.6886403 214.284761,13.2668958 L214.284761,13.6201121 C211.359901,10.9767426 207.656961,10.4109638 205.940978,10.4109638 C198.186659,10.4109638 191.8785,16.7107546 191.8785,24.4556257 C191.8785,32.1981957 198.186659,38.4994247 205.940978,38.4994247 C208.15082,38.4994247 209.774942,37.9805304 211.498988,37.0451401 C211.752973,36.8918304 211.947062,36.5837729 211.947062,36.2673739 L211.947062,30.6173515 C210.95675,31.3801606 208.607533,32.7918752 205.940978,32.7918752 C201.337859,32.7918752 197.594315,29.0514643 197.594315,24.4556257 C197.594315,19.8577736 201.337859,16.1190885 205.940978,16.1190885 C210.371894,16.1190885 214.284761,19.2310161 214.284761,24.2191894 L214.284761,35.6446433 C214.284761,37.2208853 215.563613,38.4994247 217.14166,38.4994247 C218.720572,38.4994247 220,37.2208853 220,35.6446433 L220,13.2668958 C220,11.6886403 218.720572,10.4109638 217.14166,10.4109638 L217.14166,10.4109638 Z M107.711831,10.4109638 C106.133495,10.4109638 104.854067,11.6886403 104.854067,13.2668958 L104.854067,13.6201121 C101.92892,10.9767426 98.2262671,10.4109638 96.5091324,10.4109638 C88.7571173,10.4109638 82.4489582,16.7107546 82.4489582,24.4556257 C82.4489582,32.1981957 88.7571173,38.4994247 96.5091324,38.4994247 C98.719551,38.4994247 100.346553,37.9805304 102.070023,37.0451401 C102.32372,36.8918304 102.51608,36.5837729 102.51608,36.2673739 L102.51608,30.6173515 C101.526633,31.3801606 99.1779911,32.7918752 96.5091324,32.7918752 C91.9074533,32.7918752 88.1639096,29.0514643 88.1639096,24.4556257 C88.1639096,19.8577736 91.9074533,16.1190885 96.5091324,16.1190885 C100.941776,16.1190885 104.854067,19.2310161 104.854067,24.2191894 L104.854067,35.6446433 C104.854067,37.2208853 106.133495,38.4994247 107.711831,38.4994247 C109.289879,38.4994247 110.569307,37.2208853 110.569307,35.6446433 L110.569307,13.2668958 C110.569307,11.6886403 109.289879,10.4109638 107.711831,10.4109638 L107.711831,10.4109638 Z M189.833373,10.4109638 C188.804762,10.4109638 187.804084,10.525155 186.83969,10.7348412 C184.305887,11.4220022 183.824985,12.8783003 183.824985,13.2867426 L183.824985,18.6778932 C185.344576,17.1028016 187.475228,16.1190885 189.833373,16.1190885 C191.409981,16.1190885 192.689409,14.8416997 192.689409,13.2668958 C192.689409,11.6886403 191.409981,10.4109638 189.833373,10.4109638 L189.833373,10.4109638 Z M178.629811,38.4994247 C177.051763,38.4994247 175.772623,37.2208853 175.772623,35.6446433 L175.772623,13.2668958 C175.772623,11.6886403 177.051763,10.4109638 178.629811,10.4109638 C180.206994,10.4109638 181.487574,11.6886403 181.487574,13.2668958 L181.487574,35.6446433 C181.487574,37.2208853 180.206994,38.4994247 178.629811,38.4994247 L178.629811,38.4994247 Z M172.509981,26.7316847 C171.34977,25.664845 169.541062,25.7402055 168.473865,26.9008143 L165.26248,30.3883937 C162.006173,33.5989802 156.740447,33.5868995 153.501994,30.3495629 C150.246262,27.0989951 150.24511,21.8108181 153.501994,18.5608256 C155.134179,16.9290699 157.281533,16.1213896 159.427447,16.1277176 L159.425144,16.1231154 C160.58305,16.1231154 162.042456,16.3543743 162.972295,16.8514083 L157.357556,22.4605865 C156.242267,23.5740232 156.242267,25.3818117 157.357556,26.4966866 C158.475147,27.6109862 160.282703,27.6109862 161.397991,26.4966866 L169.342943,18.5608256 C170.459958,17.4445125 170.459958,15.6393127 169.342943,14.5250131 C163.860955,9.04814718 154.941242,9.04814718 149.458678,14.5250131 C143.975539,20.0004408 143.975539,28.9096601 149.458678,34.3853754 C152.200104,37.1239522 155.800817,38.493672 159.400954,38.493672 C163.001668,38.493672 166.602669,37.1239522 169.342943,34.3853754 C169.371739,34.3571871 172.680456,30.7654838 172.680456,30.7654838 C173.748518,29.6028614 173.671919,27.7979492 172.509981,26.7316847 L172.509981,26.7316847 Z M217.294858,1.8900523 L216.674869,1.8900523 L216.674869,2.67011954 L217.294858,2.67011954 C217.466773,2.67011954 217.587718,2.64365708 217.657981,2.58986926 C217.728245,2.5357938 217.763377,2.43195742 217.763377,2.28008592 C217.763377,2.12677624 217.728245,2.02293986 217.657981,1.97116548 C217.587718,1.91622712 217.466773,1.8900523 217.294858,1.8900523 L217.294858,1.8900523 Z M216.380281,1.43098618 L217.411196,1.43098618 C217.710967,1.43098618 217.942779,1.50720956 218.106343,1.6593687 C218.271635,1.81382891 218.354281,2.01977587 218.354281,2.28008592 C218.354281,2.68651476 218.150689,2.95660441 217.742931,3.08949197 L218.285169,3.75766903 C218.317709,3.80973104 218.335275,3.86409414 218.335275,3.91932013 C218.335275,4.01855435 218.305902,4.09794173 218.249749,4.1497161 C218.191868,4.20522973 218.119877,4.23197983 218.031472,4.23197983 C217.950554,4.23197983 217.88029,4.18969742 217.821833,4.10887187 L217.113152,3.13954053 L216.674869,3.13954053 L216.674869,3.92938737 C216.674869,4.02258125 216.645785,4.09794173 216.58848,4.1497161 C216.530887,4.20522973 216.458896,4.23197983 216.37193,4.23197983 C216.178418,4.23197983 216.081086,4.13015689 216.081086,3.92938737 L216.081086,1.73271573 C216.081086,1.64527456 216.11017,1.57336571 216.166035,1.51583863 C216.221613,1.45859918 216.292452,1.43098618 216.380281,1.43098618 L216.380281,1.43098618 Z M215.596729,1.3231229 C215.22727,1.73703026 215.042684,2.23895405 215.042684,2.82946956 C215.042684,3.42372432 215.224966,3.92277176 215.590681,4.33351513 C215.957837,4.74310796 216.468974,4.94847964 217.123807,4.94847964 C217.777199,4.94847964 218.290352,4.74310796 218.659235,4.33351513 C219.028694,3.92277176 219.21328,3.42372432 219.21328,2.82946956 C219.21328,2.23895405 219.028694,1.73703026 218.659235,1.3231229 C218.290352,0.910941352 217.777199,0.70413149 217.123807,0.70413149 C216.47531,0.70413149 215.965612,0.910941352 215.596729,1.3231229 L215.596729,1.3231229 Z M215.106324,4.8506836 C214.542777,4.31740755 214.260284,3.64520359 214.260284,2.82946956 C214.260284,2.01718715 214.542777,1.34325738 215.106324,0.807104968 C215.669872,0.268651476 216.34083,7.10542736e-15 217.123807,7.10542736e-15 C217.904479,7.10542736e-15 218.578317,0.268651476 219.144456,0.807104968 C219.712611,1.34325738 219.995105,2.01718715 219.995105,2.82946956 C219.995105,3.64520359 219.713763,4.31740755 219.150792,4.8506836 C218.587244,5.38395966 217.909951,5.65059768 217.123807,5.65059768 C216.34083,5.65059768 215.669872,5.38395966 215.106324,4.8506836 L215.106324,4.8506836 Z"></path>
            </g>
        </g>
    </g>
</svg>
